<svg width="885.386" height="885.385" xmlns="http://www.w3.org/2000/svg">

 <g>
  <title>background</title>
  <rect fill="none" id="canvas_background" height="402" width="582" y="-1" x="-1"/>
 </g>
 <g>
  <title>Layer 1</title>
  <circle id="svg_1" r="425.622" cy="442.693" cx="442.692" fill="#BE1622"/>
  <circle id="svg_2" r="386.929" cy="442.693" cx="442.693" fill="#408AA7"/>
  <circle id="svg_3" r="250.266" cy="442.693" cx="442.692" stroke-dasharray="28.5735,27.5882" stroke-miterlimit="10" stroke-width="370" stroke="#1C7894" fill="none"/>
  <circle id="svg_4" r="390.566" cy="442.693" cx="442.693" stroke-linejoin="bevel" stroke-width="20" stroke="#408AA7" fill="none"/>
  <path id="svg_5" d="m442.693,26c230.132,0 416.692,186.56 416.692,416.693c0,230.134 -186.561,416.692 -416.692,416.692c-230.133,0 -416.693,-186.558 -416.693,-416.692c0,-230.133 186.56,-416.693 416.693,-416.693m0,-26c-59.752,0 -117.73,11.708 -172.324,34.8c-52.719,22.298 -100.06,54.214 -140.707,94.862c-40.648,40.648 -72.564,87.988 -94.862,140.707c-23.092,54.594 -34.8,112.572 -34.8,172.324s11.708,117.73 34.8,172.324c22.298,52.719 54.214,100.06 94.862,140.707c40.647,40.647 87.988,72.563 140.707,94.861c54.594,23.092 112.572,34.8 172.324,34.8s117.729,-11.708 172.323,-34.8c52.719,-22.298 100.06,-54.214 140.707,-94.861s72.564,-87.988 94.862,-140.707c23.092,-54.594 34.8,-112.572 34.8,-172.324s-11.708,-117.73 -34.8,-172.324c-22.298,-52.719 -54.215,-100.059 -94.862,-140.707c-40.647,-40.648 -87.988,-72.564 -140.706,-94.862c-54.594,-23.092 -112.573,-34.8 -172.324,-34.8l0,0z" fill="#F1F2C4"/>
  <path id="svg_6" d="m442.693,50.167c52.999,0 104.402,10.375 152.782,30.838c46.739,19.769 88.72,48.074 124.774,84.129c36.056,36.056 64.36,78.036 84.13,124.775c20.463,48.379 30.838,99.783 30.838,152.783s-10.375,104.403 -30.838,152.783c-19.77,46.739 -48.074,88.719 -84.13,124.774c-36.055,36.055 -78.035,64.36 -124.774,84.13c-48.38,20.462 -99.783,30.838 -152.782,30.838c-53,0 -104.403,-10.376 -152.783,-30.838c-46.74,-19.77 -88.72,-48.075 -124.775,-84.13c-36.056,-36.056 -64.361,-78.036 -84.13,-124.775c-20.463,-48.379 -30.838,-99.783 -30.838,-152.782s10.375,-104.402 30.838,-152.782c19.769,-46.739 48.075,-88.72 84.13,-124.775c36.055,-36.056 78.036,-64.361 124.775,-84.13c48.38,-20.463 99.784,-30.838 152.783,-30.838m0,-20c-227.832,0 -412.527,184.694 -412.527,412.526s184.695,412.525 412.527,412.525c227.831,0 412.524,-184.693 412.524,-412.525s-184.693,-412.526 -412.524,-412.526l0,0z" fill="#F1F2C4"/>
  <polygon id="svg_7" points="500.145,385.243 605.192,442.691 500.147,500.145 442.692,605.194 385.242,500.146    280.193,442.694 385.241,385.237 442.692,280.191" fill="#1C7894"/>
  <polygon id="svg_8" points="442.694,361.445 557.597,327.787 523.944,442.692 557.599,557.598 442.693,523.942 327.79,557.598    361.442,442.69 327.787,327.787" fill="#408AA7"/>
  <polygon id="svg_9" points="398.501,398.5 442.692,317.693 486.888,398.498 567.694,442.693 486.888,486.886 442.694,567.693    398.497,486.886 317.692,442.693" fill="#408AA7"/>
  <polygon id="svg_10" points="442.694,380.195 531.081,354.304 505.194,442.692 531.082,531.082 442.694,505.192    354.306,531.082 380.192,442.691 354.304,354.304" fill="#1C7894"/>
  <text x="9.913673" y="25" id="svg_11" font-size="62" font-family="'Century'" fill="#F1F2C4" transform="matrix(1.9172445535659788,0,0,1.9172445535659788,71.50849682332694,438.46361230155503) ">W</text>
  <text x="-10.787213" y="8.442167" id="svg_12" font-size="62" font-family="'Century'" fill="#F1F2C4" transform="matrix(2.1321539878845215,0,0,2.1321539878845215,420.8261761155785,761.8231922336249) ">S</text>
  <text x="2.72529" y="-22.71075" id="svg_13" font-size="62" font-family="'Century'" fill="#F1F2C4" transform="matrix(2.2016005516052246,0,0,2.2016005516052246,691.7004948972299,536.5357471068555) ">E</text>
  <text x="-15.099431" y="-5.948261" id="svg_14" font-size="62" font-family="'Century'" fill="#F1F2C4" transform="matrix(2.1855127811431885,0,0,2.1855127811431885,420.9862531623394,214.77701468918207) ">N</text>
 </g>
</svg>